<svg xmlns:dc="http://purl.org/dc/elements/1.1/" xmlns:cc="http://creativecommons.org/ns#" xmlns:rdf="http://www.w3.org/1999/02/22-rdf-syntax-ns#" xmlns:svg="http://www.w3.org/2000/svg" xmlns="http://www.w3.org/2000/svg" xmlns:sodipodi="http://sodipodi.sourceforge.net/DTD/sodipodi-0.dtd" xmlns:inkscape="http://www.inkscape.org/namespaces/inkscape" viewBox="0 0 16.933333 21.1666675" version="1.1" x="0px" y="0px"><g transform="translate(0,-280.06665)"><path style="opacity:1;fill:#FFFFFF;fill-opacity:1;fill-rule:nonzero;stroke:none;stroke-width:0.08356888;stroke-linecap:round;stroke-linejoin:round;stroke-miterlimit:4;stroke-dasharray:none;stroke-dashoffset:0;stroke-opacity:1;paint-order:fill markers stroke" d="m 8.4666477,282.71249 a 1.9071424,1.9071424 0 0 0 -1.5724381,0.82819 l -4.6707064,8.08985 a 1.9071424,1.9071424 0 0 0 0,1.6e-4 1.9071424,1.9071424 0 0 0 0.06893,1.77582 1.9071424,1.9071424 0 0 0 1.5235488,0.94764 h 9.301165 a 1.9071424,1.9071424 0 0 0 1.523711,-0.94764 1.9071424,1.9071424 0 0 0 0.06893,-1.77598 l -4.660603,-8.07242 a 1.9071424,1.9071424 0 0 0 -1.5825415,-0.84562 z"/></g></svg>